<?xml version="1.0" standalone="no"?>
<!DOCTYPE svg PUBLIC "-//W3C//DTD SVG 20010904//EN"
 "http://www.w3.org/TR/2001/REC-SVG-20010904/DTD/svg10.dtd">
<svg version="1.0" xmlns="http://www.w3.org/2000/svg"
 width="64.000000pt" height="64.000000pt" viewBox="0 0 64.000000 64.000000"
 preserveAspectRatio="xMidYMid meet">
<metadata>
Created by potrace 1.15, written by Peter Selinger 2001-2017
</metadata>
<g transform="translate(0.000000,64.000000) scale(0.100000,-0.100000)"
fill="#000000" stroke="none">
<path d="M197 615 c-69 -29 -134 -93 -170 -169 -35 -73 -35 -179 0 -252 122
-258 464 -258 586 0 35 73 35 179 0 252 -77 164 -255 236 -416 169z m38 -119
c21 -9 35 -22 36 -33 2 -40 -3 -82 -22 -155 -23 -91 -23 -89 -5 -113 13 -18
14 -17 30 7 9 13 18 51 21 83 7 70 9 75 41 75 20 0 24 -5 24 -32 0 -18 -7 -51
-14 -73 -19 -53 -5 -84 27 -62 12 8 29 26 36 40 13 22 13 29 -2 63 -24 52 -21
140 6 167 19 19 60 17 81 -3 14 -14 15 -90 1 -142 -8 -33 -9 -50 -1 -58 17
-17 44 -11 65 16 22 28 29 17 11 -17 -13 -23 -59 -47 -82 -42 -10 3 -18 0 -18
-6 0 -6 -14 -26 -31 -45 -38 -44 -87 -56 -125 -31 -23 15 -27 15 -49 1 -56
-37 -105 -8 -100 59 3 41 32 162 43 180 9 14 9 37 -1 58 -10 23 -24 22 -37 -3
-8 -16 -8 -24 4 -35 15 -16 11 -55 -8 -67 -20 -14 -53 -8 -70 11 -34 38 -2
129 55 158 31 16 42 16 84 -1z"/>
</g>
</svg>
